<svg xmlns="http://www.w3.org/2000/svg" version="1.1" xmlns:xlink="http://www.w3.org/1999/xlink" xmlns:svgjs="http://svgjs.dev/svgjs" viewBox="0 0 2400 800"><defs><linearGradient x1="50%" y1="0%" x2="50%" y2="100%" id="oooscillate-grad"><stop stop-color="hsl(88, 92%, 24%)" stop-opacity="1" offset="0%"></stop><stop stop-color="hsl(88, 86%, 26%)" stop-opacity="1" offset="100%"></stop></linearGradient></defs><g stroke-width="2" stroke="url(#oooscillate-grad)" fill="none" stroke-linecap="round"><path d="M 0 1170 Q 600 115 1200 400 Q 1800 685 2400 1170" opacity="0.05"></path><path d="M 0 1125 Q 600 115 1200 400 Q 1800 685 2400 1125" opacity="0.09"></path><path d="M 0 1080 Q 600 115 1200 400 Q 1800 685 2400 1080" opacity="0.13"></path><path d="M 0 1035 Q 600 115 1200 400 Q 1800 685 2400 1035" opacity="0.16"></path><path d="M 0 990 Q 600 115 1200 400 Q 1800 685 2400 990" opacity="0.20"></path><path d="M 0 945 Q 600 115 1200 400 Q 1800 685 2400 945" opacity="0.24"></path><path d="M 0 900 Q 600 115 1200 400 Q 1800 685 2400 900" opacity="0.28"></path><path d="M 0 855 Q 600 115 1200 400 Q 1800 685 2400 855" opacity="0.32"></path><path d="M 0 810 Q 600 115 1200 400 Q 1800 685 2400 810" opacity="0.35"></path><path d="M 0 765 Q 600 115 1200 400 Q 1800 685 2400 765" opacity="0.39"></path><path d="M 0 720 Q 600 115 1200 400 Q 1800 685 2400 720" opacity="0.43"></path><path d="M 0 675 Q 600 115 1200 400 Q 1800 685 2400 675" opacity="0.47"></path><path d="M 0 630 Q 600 115 1200 400 Q 1800 685 2400 630" opacity="0.51"></path><path d="M 0 585 Q 600 115 1200 400 Q 1800 685 2400 585" opacity="0.54"></path><path d="M 0 540 Q 600 115 1200 400 Q 1800 685 2400 540" opacity="0.58"></path><path d="M 0 495 Q 600 115 1200 400 Q 1800 685 2400 495" opacity="0.62"></path><path d="M 0 450 Q 600 115 1200 400 Q 1800 685 2400 450" opacity="0.66"></path><path d="M 0 405 Q 600 115 1200 400 Q 1800 685 2400 405" opacity="0.70"></path><path d="M 0 360 Q 600 115 1200 400 Q 1800 685 2400 360" opacity="0.73"></path><path d="M 0 315 Q 600 115 1200 400 Q 1800 685 2400 315" opacity="0.77"></path><path d="M 0 270 Q 600 115 1200 400 Q 1800 685 2400 270" opacity="0.81"></path><path d="M 0 225 Q 600 115 1200 400 Q 1800 685 2400 225" opacity="0.85"></path><path d="M 0 180 Q 600 115 1200 400 Q 1800 685 2400 180" opacity="0.89"></path><path d="M 0 135 Q 600 115 1200 400 Q 1800 685 2400 135" opacity="0.92"></path><path d="M 0 90 Q 600 115 1200 400 Q 1800 685 2400 90" opacity="0.96"></path></g></svg>